# xmcd
#
# Track frame offsets:
#	150
#	12712
#	23515
#	36189
#	49187
#	62711
#	72518
#	84763
#	96406
#	107784
#	120336
#	133149
#	143392
#	154432
#	168398
#	179863
#	191224
#	202658
#	211814
#	221398
#	235918
#	249243
#	262892
#	273340
#	282029
#	300310
#	319128
#	334087
#
# Disc length: 4617 seconds
#
# Revision: 1
# Processed by: cddbd v1.5.2PL0 Copyright (c) Steve Scherf et al.
# Submitted via: audiograbber 1.83.01
#
DISCID=8f12071c
DTITLE=Various Artist - Skikkelig Køntry
DYEAR=2005
DGENRE=Country
TTITLE0=Ottar Big Hand - Good Times
TTITLE1=Leroy van Dyke - Walk On By
TTITLE2=Dolly Parton - 9 - 5
TTITLE3=Lonnie Donegan - Have A Drink On Me
TTITLE4=Burl Ives - Ballad Of David Crockett
TTITLE5=Elvis Presley - Blue Moon Of Kentucky
TTITLE6=Elvis Presley - Blueberry Hill
TTITLE7=Buck Owens - Cryin' Time
TTITLE8=Elvis Presley - Flaming Star
TTITLE9=Burl Ives - Funny Way Of Laughing
TTITLE10=Johnny Cash - I Walk The Line
TTITLE11=Conway Twitty - It's Only Make Believe
TTITLE12=Wilbert Harrison - Kansas City
TTITLE13=Elvis Presley - Lonesome Cowboy
TTITLE14=Elvis Presley - I Don't Care If The Sun Don't Shine
TTITLE15=Buck Owens - My Heart Skips A Beat
TTITLE16=Johnny Cash - Oh Lonesome Me
TTITLE17=Burl Ives - Polly Wolly Doodle
TTITLE18=Frankie Lane - Rawhide
TTITLE19=Glenn Campbell - Rhinestone Cowboy
TTITLE20=Johnny Cash - Ring Of Fire
TTITLE21=Lynn Anderson - Rosegarden
TTITLE22=Patsy Cline - Seven Lonely Days
TTITLE23=Johnny Cash - Sugartime
TTITLE24=Shania Twain - That Don't Impress Me Much
TTITLE25=Hellbillies - Tolleiv
TTITLE26=The Kingston Trio - Tom Dooley
TTITLE27=Buck Owens - Under Your Spell Again
EXTD=
EXTT0=
EXTT1=
EXTT2=
EXTT3=
EXTT4=
EXTT5=
EXTT6=
EXTT7=
EXTT8=
EXTT9=
EXTT10=
EXTT11=
EXTT12=
EXTT13=
EXTT14=
EXTT15=
EXTT16=
EXTT17=
EXTT18=
EXTT19=
EXTT20=
EXTT21=
EXTT22=
EXTT23=
EXTT24=
EXTT25=
EXTT26=
EXTT27=
PLAYORDER=
